HIERARCHY
ROOT Hips
{
	OFFSET -0.001795 -0.223333 0.028219
	CHANNELS 6 Xposition Yposition Zposition Zrotation Yrotation Xrotation 
	JOINT LeftUpLeg
	{
		OFFSET 0.069520 -0.091406 -0.006815
		CHANNELS 3 Zrotation Yrotation Xrotation
		JOINT LeftLeg
		{
			OFFSET 0.034277 -0.375199 -0.004496
			CHANNELS 3 Zrotation Yrotation Xrotation
			JOINT LeftFoot
			{
				OFFSET -0.013596 -0.397961 -0.043693
				CHANNELS 3 Zrotation Yrotation Xrotation
				JOINT LeftToe
				{
					OFFSET 0.026358 -0.055791 0.119288
					CHANNELS 3 Zrotation Yrotation Xrotation
					End Site
					{
						OFFSET 0.000000 0.000000 0.000000
					}
				}
			}
		}
	}
	JOINT RightUpLeg
	{
		OFFSET -0.067670 -0.090522 -0.004320
		CHANNELS 3 Zrotation Yrotation Xrotation
		JOINT RightLeg
		{
			OFFSET -0.038290 -0.382569 -0.008850
			CHANNELS 3 Zrotation Yrotation Xrotation
			JOINT RightFoot
			{
				OFFSET 0.015774 -0.398415 -0.042312
				CHANNELS 3 Zrotation Yrotation Xrotation
				JOINT RightToe
				{
					OFFSET -0.025372 -0.048144 0.123348
					CHANNELS 3 Zrotation Yrotation Xrotation
					End Site
					{
						OFFSET 0.000000 0.000000 0.000000
					}
				}
			}
		}
	}
	JOINT Spine
	{
		OFFSET -0.002533 0.108963 -0.026696
		CHANNELS 3 Zrotation Yrotation Xrotation
		JOINT Spine1
		{
			OFFSET 0.005487 0.135180 0.001092
			CHANNELS 3 Zrotation Yrotation Xrotation
			JOINT Spine2
			{
				OFFSET 0.001457 0.052922 0.025425
				CHANNELS 3 Zrotation Yrotation Xrotation
				JOINT Neck
				{
					OFFSET -0.002778 0.213870 -0.042857
					CHANNELS 3 Zrotation Yrotation Xrotation
					JOINT Head
					{
						OFFSET 0.005152 0.064970 0.051349
						CHANNELS 3 Zrotation Yrotation Xrotation
						End Site
						{
							OFFSET 0.000000 0.000000 0.000000
						}
					}
				}
				JOINT LeftShoulder
				{
					OFFSET 0.078845 0.121749 -0.034090
					CHANNELS 3 Zrotation Yrotation Xrotation
					JOINT LeftArm
					{
						OFFSET 0.090977 0.030469 -0.008868
						CHANNELS 3 Zrotation Yrotation Xrotation
						JOINT LeftForeArm
						{
							OFFSET 0.259612 -0.012772 -0.027456
							CHANNELS 3 Zrotation Yrotation Xrotation
							JOINT LeftHand
							{
								OFFSET 0.249234 0.008986 -0.001171
								CHANNELS 3 Zrotation Yrotation Xrotation
								End Site
								{
									OFFSET 0.000000 0.000000 0.000000
								}
							}
						}
					}
				}
				JOINT RightShoulder
				{
					OFFSET -0.081759 0.118833 -0.038615
					CHANNELS 3 Zrotation Yrotation Xrotation
					JOINT RightArm
					{
						OFFSET -0.096012 0.032551 -0.009143
						CHANNELS 3 Zrotation Yrotation Xrotation
						JOINT RightForeArm
						{
							OFFSET -0.253742 -0.013329 -0.021401
							CHANNELS 3 Zrotation Yrotation Xrotation
							JOINT RightHand
							{
								OFFSET -0.255298 0.007772 -0.005559
								CHANNELS 3 Zrotation Yrotation Xrotation
								End Site
								{
									OFFSET 0.000000 0.000000 0.000000
								}
							}
						}
					}
				}
			}
		}
	}
}
MOTION
Frames: 13
Frame Time: 0.050000
-1.295585 0.911583 1.690173 -10.278715 21.387710 -5.664823 5.874356 -0.571945 -7.307115 -5.453714 -6.915981 60.985122 -0.872268 -1.926738 -0.097510 0.000000 0.000000 0.000000 4.110109 1.770617 -15.108055 -7.852837 2.003486 25.449868 9.374554 25.553752 -3.630424 0.000000 0.000000 0.000000 10.426344 -1.571997 9.227988 0.089960 0.093973 -1.368211 -0.709301 5.050834 8.628595 1.568795 0.692403 -8.010260 0.000000 0.000000 0.000000 -26.234825 6.037827 -11.761912 -47.394895 0.323393 -4.695436 -17.163788 -26.306245 3.875094 0.000000 0.000000 0.000000 21.146765 -13.513828 -5.669845 52.287028 5.741478 -3.595491 8.836370 22.213637 3.168583 0.000000 0.000000 0.000000 
-1.289376 0.919161 1.721520 -9.051230 25.693611 -6.455941 8.259119 -1.052272 -14.661680 -16.869183 -1.008939 64.989412 5.904485 12.689629 2.118722 0.000000 0.000000 0.000000 2.574416 1.159705 -10.333226 -6.362777 1.189823 23.748116 7.566866 21.239380 -4.753348 0.000000 0.000000 0.000000 8.878411 -1.737389 11.053514 0.336212 0.094057 -2.278247 -1.099899 8.137833 8.386901 3.001854 0.390611 -9.446355 0.000000 0.000000 0.000000 -25.124154 3.685142 -11.821873 -46.689119 2.768562 -5.106237 -15.168206 -24.383393 2.866004 0.000000 0.000000 0.000000 22.124820 -12.697613 -3.813128 50.687779 8.023675 -3.122828 7.745443 23.388196 3.366498 0.000000 0.000000 0.000000 
-1.275220 0.924608 1.749707 -7.564877 29.919716 -6.416722 9.979261 -1.652724 -20.791916 -24.385950 2.759546 60.006421 10.919659 22.120570 3.293254 0.000000 0.000000 0.000000 0.607029 0.554964 -5.663855 -4.695299 0.479902 21.354299 6.096649 16.906708 -4.668203 0.000000 0.000000 0.000000 7.448285 -1.675466 11.483916 0.662203 -0.090327 -1.834989 -1.626357 11.132122 8.154707 4.833246 -0.816621 -8.398713 0.000000 0.000000 0.000000 -24.235685 2.916003 -12.585075 -46.175461 4.097513 -5.302901 -14.302549 -23.211186 2.335005 0.000000 0.000000 0.000000 22.354467 -11.284694 -1.636482 49.052295 10.403719 -2.520105 5.490894 24.716254 3.230212 0.000000 0.000000 0.000000 
-1.254071 0.927001 1.775336 -6.399335 34.033401 -6.766651 11.112722 -2.226748 -24.719605 -26.113596 2.677256 50.001281 14.408504 27.972765 5.962742 0.000000 0.000000 0.000000 -1.634359 -0.105758 -0.753499 -2.958236 -0.067975 18.451381 5.238757 14.209692 -4.475809 0.000000 0.000000 0.000000 6.925927 -1.789289 12.278895 0.889616 -0.267591 -1.235200 -3.088109 13.812400 7.181408 6.362660 -1.305965 -9.443987 0.000000 0.000000 0.000000 -22.947774 2.146229 -12.950774 -46.007523 5.548564 -5.692424 -12.728057 -23.763003 1.823963 0.000000 0.000000 0.000000 23.196437 -11.216481 -0.349927 46.628172 12.508457 -2.119332 4.290631 26.044229 3.269170 0.000000 0.000000 0.000000 
-1.226527 0.925528 1.798699 -5.856822 37.666713 -6.689117 12.036038 -2.506021 -25.630437 -20.763310 0.493465 37.536356 14.193670 27.317230 4.695548 0.000000 0.000000 0.000000 -2.120568 -0.693932 3.905661 -2.790118 -0.046774 15.813893 4.474192 11.657905 -3.524157 0.000000 0.000000 0.000000 7.310561 -1.832813 11.905227 0.382954 -0.023249 -1.365183 -3.211653 15.788035 7.427502 7.004244 -1.367378 -9.801836 0.000000 0.000000 0.000000 -23.149770 2.494395 -14.450444 -44.552072 7.261151 -5.855171 -13.144445 -23.471308 1.726611 0.000000 0.000000 0.000000 22.785050 -11.737737 0.205303 46.422315 13.087114 -2.046390 3.982540 27.015798 3.530643 0.000000 0.000000 0.000000 
-1.192951 0.920603 1.819712 -6.387345 42.292555 -7.326961 12.923652 -2.675641 -25.257533 -13.838139 -0.595159 24.807448 12.534888 24.075554 4.986308 0.000000 0.000000 0.000000 -2.736896 -1.425639 8.172794 -2.600511 -0.101833 13.956941 3.461200 8.409304 -1.795118 0.000000 0.000000 0.000000 7.465533 -1.864557 11.605455 0.774904 -0.199991 -1.442964 -3.517018 17.062200 7.441860 7.537423 -1.465979 -9.922497 0.000000 0.000000 0.000000 -23.685094 1.764346 -15.620118 -43.915680 9.437684 -6.257906 -13.131830 -23.887254 1.606530 0.000000 0.000000 0.000000 23.462895 -11.411738 1.518438 45.133828 13.777182 -2.123439 4.492053 27.595598 3.724242 0.000000 0.000000 0.000000 
-1.152669 0.914592 1.838537 -6.326637 45.854138 -7.583707 12.426462 -2.785435 -24.454421 -7.063071 -0.649521 14.455460 9.820898 20.444228 7.589377 0.000000 0.000000 0.000000 -3.049668 -2.244785 12.064403 -3.428592 0.055239 13.679192 3.062876 7.203953 -0.688665 0.000000 0.000000 0.000000 6.318726 -1.685982 11.355635 2.023425 -0.647483 -2.132875 -3.043525 17.612495 8.138813 7.306204 -0.363925 -11.902974 0.000000 0.000000 0.000000 -23.280888 1.960646 -16.397363 -45.525419 10.696477 -7.098410 -13.107014 -22.254608 1.329536 0.000000 0.000000 0.000000 23.164525 -11.406275 2.130828 44.985443 15.051385 -1.744979 2.476253 27.543724 3.272818 0.000000 0.000000 0.000000 
-1.104159 0.907649 1.855342 -6.363842 49.041904 -8.058714 10.600947 -2.913302 -23.708990 -4.122160 -0.736695 11.803897 7.127256 16.559930 7.461179 0.000000 0.000000 0.000000 -2.565829 -3.017073 14.947887 -6.475407 0.536525 16.072088 3.572355 8.413431 0.862555 0.000000 0.000000 0.000000 5.746801 -1.574971 11.062950 1.222634 -0.195410 -2.696836 -1.526342 18.703475 8.896439 8.526426 -1.011550 -11.692130 0.000000 0.000000 0.000000 -24.503467 0.941880 -17.902869 -44.349736 12.425156 -7.017936 -11.507131 -21.615082 0.962834 0.000000 0.000000 0.000000 22.584631 -12.318273 1.918177 46.946635 13.969521 -1.671858 2.054399 27.893181 3.293524 0.000000 0.000000 0.000000 
-1.047745 0.903489 1.869698 -6.150491 53.325073 -8.966056 7.521242 -2.933466 -22.369132 -4.418384 -1.191054 14.575362 4.172662 13.782196 9.705954 0.000000 0.000000 0.000000 -3.843793 -3.823844 17.357965 -8.233755 0.205494 20.626410 4.965454 11.473498 3.404744 0.000000 0.000000 0.000000 4.709077 -1.489038 11.189516 2.722573 -0.748298 -3.210756 -2.353846 18.990116 9.867089 10.382551 -1.907075 -12.092684 0.000000 0.000000 0.000000 -25.208686 -0.555222 -18.791124 -44.102575 12.760496 -6.725191 -9.437755 -20.051121 0.524614 0.000000 0.000000 0.000000 24.321753 -14.230835 1.751368 46.408207 14.426553 -1.957140 2.430125 27.956427 3.428621 0.000000 0.000000 0.000000 
-0.988703 0.905000 1.882024 -5.268585 56.595960 -8.353952 3.990122 -2.674135 -20.098156 -3.581473 -1.819796 17.151049 2.269975 8.622580 6.180079 0.000000 0.000000 0.000000 -4.177100 -3.291248 14.778066 -13.068465 -0.922983 31.454569 7.493041 14.592518 12.315047 0.000000 0.000000 0.000000 3.519899 -1.132641 9.900189 3.534787 -1.200725 -2.858956 -2.228037 19.107211 9.690634 10.729952 -2.861130 -10.312114 0.000000 0.000000 0.000000 -26.251029 -1.587687 -19.994246 -43.479135 13.869708 -6.465774 -10.082562 -19.577275 0.587993 0.000000 0.000000 0.000000 22.884950 -14.865369 1.231723 49.384659 11.119170 -2.295222 2.763688 28.733055 3.787229 0.000000 0.000000 0.000000 
-0.934117 0.909743 1.893697 -3.848364 59.383583 -8.031987 0.749082 -1.942145 -15.996307 -3.498310 -2.204800 18.483594 2.710852 6.443787 3.088128 0.000000 0.000000 0.000000 -4.224055 -1.962469 8.089459 -21.581353 -2.760896 47.019488 13.908818 20.056093 21.500311 0.000000 0.000000 0.000000 2.387445 -1.291211 11.391321 3.412549 -0.959246 -3.696585 -1.837756 17.551133 9.500189 10.989583 -2.747366 -10.956738 0.000000 0.000000 0.000000 -25.140191 -1.091129 -19.328271 -44.904102 12.731700 -6.740818 -12.304163 -19.915782 0.903865 0.000000 0.000000 0.000000 21.528110 -15.857616 -0.129499 52.805714 8.466760 -2.233102 3.565125 30.010719 4.411593 0.000000 0.000000 0.000000 
-0.886107 0.916925 1.906183 -3.660593 62.209353 -9.023373 -1.599189 -0.889710 -9.943325 -2.220478 -2.137124 17.026382 2.414315 2.033587 -0.486674 0.000000 0.000000 0.000000 -1.414336 -0.557494 -0.076544 -32.381867 -2.789415 60.569775 20.369704 26.113241 24.286877 0.000000 0.000000 0.000000 1.915703 -1.584234 13.027718 3.761960 -0.954368 -4.345582 -2.402153 14.877986 9.876431 9.877919 -2.055907 -10.809131 0.000000 0.000000 0.000000 -24.902922 -1.751593 -18.519447 -44.625066 10.514331 -5.901488 -13.043397 -20.835777 1.095594 0.000000 0.000000 0.000000 21.345915 -15.761298 -0.205132 54.655101 8.130220 -2.210508 4.836927 28.351197 4.335224 0.000000 0.000000 0.000000 
-0.842625 0.926419 1.920426 -5.971603 64.990003 -12.272921 -1.531483 -0.248906 -4.321304 -1.545908 -1.712012 14.396948 1.851576 0.189774 -1.000381 0.000000 0.000000 0.000000 1.740150 0.309112 -6.753864 -36.466797 -3.256399 66.848168 20.573550 27.278998 22.172833 0.000000 0.000000 0.000000 2.322302 -2.051178 14.690284 4.282910 -1.053291 -4.799232 -3.141633 12.431226 9.975922 9.663996 -2.795959 -9.086991 0.000000 0.000000 0.000000 -25.021784 -2.663861 -17.776673 -43.921911 8.064017 -4.791923 -13.522317 -21.902091 1.307286 0.000000 0.000000 0.000000 20.509360 -14.567269 0.104831 56.572985 6.352899 -2.433363 5.809778 28.616727 4.503037 0.000000 0.000000 0.000000 
